<svg width="18" height="18" viewBox="0 0 18 18" fill="none" xmlns="http://www.w3.org/2000/svg">
<path fill-rule="evenodd" clip-rule="evenodd" d="M3 1C3 0.447715 3.44772 0 4 0C4.55228 0 5 0.447715 5 1V2H13V1C13 0.447715 13.4477 0 14 0C14.5523 0 15 0.447715 15 1V2H16C17.1046 2 18 2.89543 18 4V16C18 17.1046 17.1046 18 16 18H2C0.89543 18 0 17.1046 0 16V4C0 2.89543 0.895431 2 2 2H3V1ZM5 9V7H3V9H5ZM3 14V12H5V14H3ZM10 12H8V14H10V12ZM8 7H10V9H8V7ZM15 14V12H13V14H15ZM13 9V7H15V9H13Z" fill="#9198A0"/>
</svg>
