<svg width="7" height="10" viewBox="0 0 7 10" fill="none" xmlns="http://www.w3.org/2000/svg">
<path d="M2.28412 6.38343H3.89918C3.89918 5.37349 4.1719 5.04963 4.96026 4.56383C5.74435 4.0823 6.19605 3.43883 6.19605 2.51412C6.19605 1.02264 4.99435 0.15332 3.30258 0.15332C1.75571 0.15332 0.494346 0.96298 0.455994 2.66753H2.19463C2.2202 1.97292 2.73582 1.60218 3.29406 1.60218C3.86935 1.60218 4.33383 1.98571 4.33383 2.57804C4.33383 3.11497 3.96736 3.48145 3.40486 3.82662C2.60372 4.3252 2.20315 4.91753 2.28412 6.38343ZM3.12361 9.11071C3.66906 9.11071 4.14207 8.65474 4.14633 8.08798C4.14207 7.52974 3.66906 7.07378 3.12361 7.07378C2.56111 7.07378 2.09662 7.52974 2.10088 8.08798C2.09662 8.65474 2.56111 9.11071 3.12361 9.11071Z" fill="white"/>
</svg>
